M48
; DRILL file {KiCad (5.1.5)-3} date 10/30/2021 10:10:11 PM
; FORMAT={-:-/ absolute / inch / decimal}
; #@! TF.CreationDate,2021-10-30T22:10:11-06:00
; #@! TF.GenerationSoftware,Kicad,Pcbnew,(5.1.5)-3
; #@! TF.FileFunction,Plated,1,2,PTH
FMAT,2
INCH
T1C0.0300
T2C0.0400
T3C0.0800
T4C0.1500
%
G90
G05
T1
X6.375Y-3.7
X6.375Y-10.925
X6.425Y-6.95
X6.425Y-10.5
X6.425Y-11.0
X6.45Y-5.5
X6.45Y-9.15
X6.45Y-10.7
X6.475Y-6.8
X6.475Y-9.6
X6.5Y-8.925
X6.5Y-11.5
X6.5Y-11.6
X6.55Y-5.075
X6.55Y-10.5
X6.575Y-11.45
X6.625Y-8.4
X6.725Y-9.2
X6.75Y-11.85
X6.775Y-8.1
X6.775Y-12.2
X6.8Y-9.7
X6.875Y-6.9
X6.875Y-11.15
X6.9Y-5.9
X6.95Y-6.1
X6.95Y-12.1
X7.0Y-7.775
X7.0Y-10.45
X7.025Y-4.9
X7.025Y-6.5
X7.025Y-7.05
X7.025Y-11.25
X7.025Y-11.65
X7.05Y-7.15
X7.05Y-7.85
X7.075Y-4.95
X7.075Y-6.65
X7.075Y-8.9
X7.075Y-10.85
X7.09Y-3.95
X7.125Y-5.0
X7.125Y-6.6
X7.125Y-11.05
X7.125Y-11.25
X7.125Y-11.35
X7.15Y-7.3
X7.15Y-10.625
X7.175Y-11.9
X7.2Y-5.075
X7.225Y-10.5
X7.25Y-7.45
X7.25Y-10.15
X7.3Y-7.1
X7.3Y-7.4
X7.325Y-10.3
X7.35Y-5.15
X7.35Y-5.35
X7.35Y-7.15
X7.45Y-7.9
X7.475Y-7.2
X7.475Y-7.725
X7.5Y-7.0
X7.5Y-8.6
X7.5Y-12.8
X7.52Y-4.15
X7.52Y-4.25
X7.52Y-4.45
X7.525Y-6.7
X7.54Y-4.53
X7.55Y-6.075
X7.56Y-4.05
X7.56Y-4.6
X7.575Y-7.1
X7.575Y-8.5
X7.625Y-8.25
X7.625Y-9.3
X7.65Y-5.6
X7.65Y-9.225
X7.7Y-8.5
X7.7Y-8.7
X7.7Y-10.55
X7.75Y-5.95
X7.775Y-6.4
X7.8Y-5.7
X7.8Y-6.3
X7.8Y-7.5
X7.825Y-6.225
X7.85Y-7.3
X7.9Y-8.7
X7.9Y-9.95
X7.925Y-5.5
X7.925Y-10.25
X7.95Y-8.45
X7.95Y-8.9
X7.95Y-10.5
X8.0Y-7.4
X8.125Y-7.45
X8.125Y-7.7
X8.125Y-9.55
X8.135Y-9.865
X8.15Y-8.825
X8.175Y-6.025
X8.205Y-10.35
X8.205Y-10.5
X8.225Y-6.8
X8.25Y-4.35
X8.25Y-5.6
X8.25Y-6.35
X8.25Y-7.375
X8.25Y-12.075
X8.255Y-10.25
X8.35Y-6.4
X8.35Y-9.275
X8.375Y-6.3
X8.4Y-4.45
X8.4Y-7.9
X8.425Y-6.75
X8.425Y-11.45
X8.45Y-9.85
X8.45Y-9.95
X8.45Y-12.275
X8.45Y-12.5
X8.45Y-12.6
X8.475Y-3.8
X8.475Y-12.4
X8.5Y-5.85
X8.5Y-6.45
X8.5Y-7.9
X8.5Y-8.65
X8.525Y-10.3
X8.525Y-10.875
X8.525Y-11.1
X8.54Y-3.76
X8.55Y-6.5
X8.55Y-7.625
X8.55Y-10.95
X8.55Y-11.935
X8.575Y-12.025
X8.6Y-3.73
X8.6Y-6.225
X8.625Y-7.9
X8.625Y-11.98
X8.645Y-11.895
X8.65Y-3.78
X8.65Y-4.875
X8.65Y-10.675
X8.675Y-7.525
X8.7Y-4.15
X8.7Y-5.5
X8.7Y-9.5
X8.7Y-11.6
X8.75Y-6.85
X8.75Y-9.9
X8.775Y-8.9
X8.775Y-10.25
X8.775Y-11.5
X8.825Y-4.1
X8.825Y-5.8
X8.825Y-9.8
X8.825Y-9.95
X8.825Y-10.425
X8.825Y-11.3
X8.85Y-5.275
X8.85Y-6.4
X8.9Y-6.025
X8.9Y-6.15
X8.9Y-8.6
X8.9Y-11.2
X8.925Y-7.425
X8.925Y-11.75
X8.95Y-3.75
X8.95Y-6.45
X9.025Y-3.725
X9.025Y-9.75
X9.05Y-6.175
X9.05Y-9.5
X9.07Y-9.95
X9.075Y-4.69
X9.1Y-10.55
X9.1Y-10.65
X9.1Y-12.05
X9.125Y-8.2
X9.125Y-11.825
X9.15Y-8.5
X9.175Y-4.3
X9.175Y-10.25
X9.175Y-10.55
X9.175Y-10.72
X9.2Y-8.7
X9.225Y-10.6
X9.25Y-3.67
X9.25Y-4.975
X9.25Y-6.1
X9.25Y-11.78
X9.275Y-10.525
X9.3Y-3.95
X9.325Y-8.55
X9.325Y-8.65
X9.325Y-10.575
X9.325Y-11.65
X9.35Y-5.3
X9.35Y-11.55
X9.375Y-4.05
X9.375Y-7.0
X9.385Y-10.6
X9.4Y-5.0
X9.4Y-11.45
X9.425Y-9.075
X9.425Y-11.35
X9.44Y-10.625
X9.45Y-6.8
X9.45Y-9.875
X9.45Y-9.95
X9.45Y-10.3
X9.475Y-4.4
X9.5Y-7.4
X9.5Y-8.2
X9.525Y-6.25
X9.525Y-9.125
X9.525Y-12.075
X9.55Y-6.025
X9.55Y-10.425
X9.575Y-5.0
X9.6Y-8.3
X9.6Y-11.0046
X9.6Y-12.4
X9.6Y-12.6
X9.625Y-12.075
X9.65Y-8.15
X9.65Y-8.45
X9.65Y-11.1
X9.7Y-3.8
X9.7Y-4.15
X9.75Y-4.5
X9.75Y-9.275
X9.75Y-10.625
X9.75Y-13.3
X9.775Y-12.1
X9.825Y-7.5
X9.85Y-5.075
X9.85Y-11.78
X9.875Y-4.8
X9.875Y-4.875
X9.875Y-9.075
X9.9Y-10.425
X9.925Y-9.025
X9.95Y-8.95
X9.95Y-9.65
X9.975Y-5.55
X10.0Y-8.125
X10.0Y-10.025
X10.025Y-5.4
X10.025Y-9.5
X10.05Y-10.15
X10.05Y-12.8
X10.075Y-12.0
X10.1Y-9.9
X10.1Y-10.7
X10.1Y-11.75
X10.15Y-8.975
X10.15Y-11.7
X10.15Y-11.875
X10.2Y-11.1
X10.225Y-6.75
X10.225Y-10.225
X10.25Y-11.0
X10.25Y-11.85
X10.25Y-11.925
X10.3Y-7.0
X10.3Y-10.15
X10.35Y-5.7
X10.35Y-9.0
X10.35Y-9.55
X10.4Y-6.225
X10.45Y-5.05
X10.45Y-7.45
X10.5Y-9.7
X10.5Y-12.6
X10.5Y-13.0
X10.525Y-9.45
X10.55Y-9.8
X10.55Y-12.8
X10.56Y-8.8
X10.575Y-9.25
X10.575Y-12.1
X10.6Y-6.1
X10.6Y-6.825
X10.6Y-9.0
X10.65Y-5.85
X10.65Y-7.4
X10.675Y-12.35
X10.7Y-8.6
X10.7Y-10.3
X10.75Y-6.025
X10.75Y-6.425
X10.75Y-9.25
X10.75Y-12.05
X10.8Y-5.8
X10.8Y-6.175
X10.8Y-8.4
X10.8Y-9.0
X10.8Y-12.0
X10.8Y-13.05
X10.825Y-6.4
X10.825Y-7.45
X10.825Y-8.7
X10.85Y-5.6
X10.85Y-7.915
X10.85Y-8.25
X10.85Y-13.125
X10.875Y-4.1
X10.875Y-10.65
X10.9Y-10.45
X10.9Y-12.7
X10.95Y-12.3
X10.975Y-7.5
X10.975Y-9.25
X10.975Y-10.675
X11.0Y-6.325
X11.0Y-6.45
X11.05Y-10.625
X11.075Y-4.85
X11.1Y-10.575
X11.125Y-11.55
X11.175Y-5.05
X11.175Y-10.55
X11.2Y-6.925
X11.225Y-5.1
X11.225Y-8.7
X11.225Y-9.0
X11.225Y-11.15
X11.25Y-5.175
X11.25Y-9.3
X11.275Y-3.5
X11.275Y-6.225
X11.295Y-4.45
X11.3Y-10.2
X11.3Y-10.3
X11.35Y-11.625
X11.4Y-6.5
X11.45Y-11.5
X11.475Y-11.1
X11.475Y-12.6
X11.5Y-6.5
X11.5Y-10.2
X11.5Y-10.475
X11.525Y-11.8
X11.55Y-13.1
X11.575Y-5.0
X11.575Y-8.1
X11.575Y-10.275
X11.6Y-11.7
X11.6Y-12.4
X11.7Y-9.2
X11.725Y-11.85
X11.75Y-9.525
X11.8Y-5.6
X11.8Y-12.25
X11.85Y-9.2
X11.875Y-10.725
X11.9Y-5.075
X11.925Y-10.25
X11.95Y-11.625
X11.995Y-9.25
X12.0Y-11.7
X12.005Y-13.05
X12.05Y-4.9
X12.05Y-8.125
X12.05Y-13.225
X12.075Y-6.25
X12.075Y-12.05
X12.1Y-11.5
X12.1Y-13.275
X12.125Y-5.6
X12.125Y-10.575
X12.125Y-13.475
X12.15Y-4.025
X12.15Y-6.325
X12.2Y-6.25
X12.2Y-9.95
X12.2Y-10.55
X12.2Y-13.225
X12.225Y-7.8
X12.25Y-10.0
X12.25Y-10.5
X12.25Y-11.9
X12.275Y-9.55
X12.275Y-12.075
X12.3Y-7.725
X12.3Y-9.95
X12.3Y-10.7
X12.3125Y-7.8125
X12.325Y-5.9
X12.325Y-10.425
X12.35Y-6.325
X12.35Y-13.15
X12.375Y-7.575
X12.375Y-11.45
X12.4Y-10.65
X12.425Y-13.275
X12.45Y-9.55
X12.45Y-11.4
X12.475Y-9.45
X12.475Y-10.65
X12.5Y-12.05
X12.525Y-10.7
X12.55Y-4.75
X12.55Y-6.1
X12.55Y-7.5
X12.55Y-9.2
X12.6Y-3.675
X12.6Y-4.15
X12.6Y-9.0
X12.6Y-11.6
X12.6Y-12.0
X12.65Y-4.1
X12.65Y-7.65
X12.65Y-11.9
X12.7Y-12.1
X12.725Y-3.625
X12.725Y-12.7
X12.75Y-7.6
X12.75Y-10.55
X12.8Y-3.575
X12.8Y-4.9
X12.8Y-6.325
X12.825Y-11.95
X12.85Y-3.5
X12.85Y-7.7
X12.9Y-7.65
X12.905Y-7.73
X12.925Y-10.5
X12.95Y-3.55
X12.975Y-10.425
X12.975Y-11.55
X12.975Y-13.0
X13.0Y-10.675
X13.0Y-13.55
X13.025Y-3.575
X13.05Y-3.825
X13.05Y-5.175
X13.05Y-6.575
X13.05Y-13.6
X13.075Y-10.675
X13.075Y-13.5
X13.1Y-12.05
X13.125Y-10.715
X13.15Y-4.75
X13.15Y-4.95
X13.15Y-6.1
X13.15Y-7.5
X13.15Y-8.9
X13.15Y-9.225
X13.175Y-10.5
X13.2Y-4.9
X13.225Y-9.0
X13.275Y-5.45
X13.275Y-10.3
X13.275Y-12.6
X13.3Y-7.675
X13.3Y-11.35
X13.325Y-6.375
X13.325Y-6.7
X13.375Y-4.975
X13.4Y-12.1
X13.45Y-4.975
X13.45Y-7.68
X13.525Y-4.975
X13.525Y-10.3
X13.525Y-13.375
X13.575Y-11.3
X13.575Y-11.5
X13.6Y-5.0
X13.6Y-10.425
X13.625Y-12.725
X13.625Y-13.2
X13.65Y-5.175
X13.65Y-12.9
X13.675Y-13.15
X13.725Y-11.85
X13.75Y-4.75
X13.75Y-5.1
X13.75Y-6.1
X13.75Y-7.5
X13.75Y-8.9
X13.75Y-9.275
X13.85Y-6.425
X13.875Y-12.075
X13.9Y-6.3
X13.9Y-9.025
X13.9Y-11.2
X13.925Y-6.85
X13.95Y-9.65
X13.975Y-6.7
X14.0Y-7.675
X14.025Y-12.1
X14.1Y-3.6
X14.1Y-6.3
X14.1Y-11.95
X14.15Y-6.35
X14.175Y-10.425
X14.2Y-6.4
X14.2Y-11.1
X14.2Y-12.9
X14.225Y-6.85
X14.225Y-10.9
X14.275Y-6.575
X14.3Y-11.0
X14.3Y-12.6
X14.35Y-4.75
X14.35Y-5.1
X14.35Y-6.1
X14.35Y-7.5
X14.35Y-8.9
X14.35Y-11.95
X14.45Y-7.825
X14.5Y-12.5
X14.525Y-7.775
X14.525Y-12.05
X14.55Y-11.1
X14.575Y-7.725
X14.6Y-12.025
X14.6Y-13.325
X14.65Y-7.675
X14.675Y-12.0
X14.7Y-3.6
X14.7Y-7.8
X14.725Y-5.0
X14.75Y-7.7
X14.775Y-8.25
X14.775Y-11.925
X14.8Y-7.75
X14.8Y-10.9
X14.85Y-7.975
X14.9Y-9.7
X14.9Y-10.525
X14.925Y-10.7
X14.95Y-4.75
X14.95Y-5.1
X14.95Y-6.1
X14.95Y-7.5
X14.95Y-8.9
X14.975Y-11.95
X15.0Y-10.2
X15.05Y-5.025
X15.05Y-7.65
X15.05Y-10.65
X15.1Y-3.675
X15.1Y-7.825
X15.15Y-6.425
X15.2Y-11.0
X15.25Y-6.4
X15.25Y-11.9
X15.3Y-3.6
X15.3Y-10.625
X15.325Y-4.95
X15.325Y-7.7
X15.325Y-10.1
X15.425Y-7.625
X15.45Y-6.1
X15.45Y-7.35
X15.45Y-8.9
X15.45Y-10.7
X15.45Y-11.3
X15.55Y-4.75
X15.55Y-6.1
X15.55Y-7.5
X15.55Y-8.9
X15.55Y-12.025
X15.65Y-11.35
X15.675Y-10.4
X15.725Y-6.125
X15.725Y-13.375
X15.75Y-7.6
X15.8Y-4.925
X15.8Y-10.575
X15.8Y-13.3
X15.825Y-6.375
X15.825Y-9.025
X15.9Y-3.6
X15.925Y-8.975
X15.95Y-6.8
X15.95Y-7.725
X15.975Y-12.8
X16.0Y-9.025
X16.025Y-12.55
X16.025Y-12.7
X16.025Y-13.0
X16.05Y-4.6
X16.05Y-9.1
X16.05Y-10.1
X16.125Y-9.125
X16.125Y-12.9
X16.15Y-4.75
X16.15Y-6.1
X16.15Y-7.5
X16.15Y-8.9
X16.15Y-12.5
X16.225Y-11.6
X16.25Y-11.15
X16.25Y-11.95
X16.325Y-11.0
X16.35Y-3.65
X16.375Y-7.675
X16.45Y-3.725
X16.45Y-5.025
X16.45Y-6.325
X16.5Y-9.175
X16.575Y-9.2
X16.7Y-9.275
X16.875Y-9.25
X16.925Y-9.125
X17.025Y-9.3
X17.04Y-9.53
X10.95Y-3.7
X9.55Y-7.725
X8.85Y-13.25
X7.65Y-11.9
X12.1Y-11.725
X10.15Y-6.25
X6.425Y-9.5
X9.45Y-7.7
T2
X6.15Y-4.25
X6.15Y-6.65
X6.15Y-11.45
X6.15Y-12.5
X6.6Y-13.85
X7.65Y-13.85
X7.8Y-3.2
X8.7Y-13.85
X8.85Y-3.2
X9.7Y-13.85
X9.9Y-3.2
X9.975Y-4.75
X10.075Y-13.5
X10.3Y-13.55
X10.55Y-13.55
X10.95Y-3.2
X11.15Y-3.475
X11.35Y-3.55
X11.6Y-3.65
X11.95Y-13.15
X12.425Y-13.5
X12.425Y-13.85
X12.45Y-7.975
X12.55Y-8.9
X13.55Y-13.85
X13.65Y-7.975
X13.75Y-6.5
X13.75Y-7.9
X14.35Y-6.5
X14.35Y-7.9
X14.6Y-13.85
X14.95Y-6.5
X14.95Y-7.9
X15.55Y-10.475
X15.6Y-13.85
X16.0Y-7.975
X16.675Y-13.85
X16.85Y-9.825
X16.9Y-13.35
X16.935Y-13.45
X17.015Y-13.375
X17.05Y-13.3
X11.45Y-7.5
X11.45Y-7.9
X17.45Y-5.1
X17.85Y-5.1
X17.4Y-11.45
X17.8Y-11.45
X17.45Y-5.3
X17.85Y-5.3
X11.15Y-8.05
X11.15Y-8.45
X14.35Y-3.9
X14.35Y-4.0
X14.35Y-4.1
X14.35Y-4.2
X14.35Y-4.3
X14.35Y-4.4
X14.35Y-4.5
X14.35Y-4.6
X14.65Y-3.9
X14.65Y-4.0
X14.65Y-4.1
X14.65Y-4.2
X14.65Y-4.3
X14.65Y-4.4
X14.65Y-4.5
X14.65Y-4.6
X8.15Y-5.45
X8.15Y-5.85
X10.05Y-10.35
X10.45Y-10.35
X8.95Y-3.9
X8.95Y-4.0
X8.95Y-4.1
X8.95Y-4.2
X8.95Y-4.3
X8.95Y-4.4
X8.95Y-4.5
X8.95Y-4.6
X9.25Y-3.9
X9.25Y-4.0
X9.25Y-4.1
X9.25Y-4.2
X9.25Y-4.3
X9.25Y-4.4
X9.25Y-4.5
X9.25Y-4.6
X11.0Y-4.7
X11.4Y-4.7
X11.975Y-9.7
X11.975Y-10.1
X14.35Y-5.25
X14.35Y-5.35
X14.35Y-5.45
X14.35Y-5.55
X14.35Y-5.65
X14.35Y-5.75
X14.35Y-5.85
X14.35Y-5.95
X14.65Y-5.25
X14.65Y-5.35
X14.65Y-5.45
X14.65Y-5.55
X14.65Y-5.65
X14.65Y-5.75
X14.65Y-5.85
X14.65Y-5.95
X11.8Y-3.8
X11.8Y-3.9
X11.8Y-4.0
X11.8Y-4.1
X11.8Y-4.2
X11.8Y-4.3
X11.8Y-4.4
X11.8Y-4.5
X11.8Y-4.6
X11.8Y-4.7
X6.6Y-8.85
X6.6Y-9.25
X8.35Y-5.25
X8.35Y-5.35
X8.35Y-5.45
X8.35Y-5.55
X8.35Y-5.65
X8.35Y-5.75
X8.35Y-5.85
X8.65Y-5.25
X8.65Y-5.35
X8.65Y-5.45
X8.65Y-5.55
X8.65Y-5.65
X8.65Y-5.75
X8.65Y-5.85
X6.95Y-3.9
X6.95Y-4.3
X17.125Y-8.9
X17.525Y-8.9
X15.55Y-6.65
X15.55Y-6.75
X15.55Y-6.85
X15.55Y-6.95
X15.55Y-7.05
X15.55Y-7.15
X15.55Y-7.25
X15.55Y-7.35
X15.85Y-6.65
X15.85Y-6.75
X15.85Y-6.85
X15.85Y-6.95
X15.85Y-7.05
X15.85Y-7.15
X15.85Y-7.25
X15.85Y-7.35
X14.95Y-10.85
X14.95Y-10.95
X14.95Y-11.05
X14.95Y-11.15
X14.95Y-11.25
X14.95Y-11.35
X14.95Y-11.45
X14.95Y-11.55
X14.95Y-11.65
X14.95Y-11.75
X15.25Y-10.85
X15.25Y-10.95
X15.25Y-11.05
X15.25Y-11.15
X15.25Y-11.25
X15.25Y-11.35
X15.25Y-11.45
X15.25Y-11.55
X15.25Y-11.65
X15.25Y-11.75
X13.05Y-4.2
X13.05Y-4.6
X7.75Y-6.65
X7.75Y-6.75
X7.75Y-6.85
X7.75Y-6.95
X7.75Y-7.05
X7.75Y-7.15
X7.75Y-7.25
X7.75Y-7.35
X7.75Y-7.45
X7.75Y-7.55
X8.05Y-6.65
X8.05Y-6.75
X8.05Y-6.85
X8.05Y-6.95
X8.05Y-7.05
X8.05Y-7.15
X8.05Y-7.25
X8.05Y-7.35
X8.05Y-7.45
X8.05Y-7.55
X13.75Y-9.45
X13.75Y-9.55
X13.75Y-9.65
X13.75Y-9.75
X13.75Y-9.85
X13.75Y-9.95
X13.75Y-10.05
X13.75Y-10.15
X13.75Y-10.25
X13.75Y-10.35
X14.05Y-9.45
X14.05Y-9.55
X14.05Y-9.65
X14.05Y-9.75
X14.05Y-9.85
X14.05Y-9.95
X14.05Y-10.05
X14.05Y-10.15
X14.05Y-10.25
X14.05Y-10.35
X14.95Y-3.35
X14.95Y-3.75
X10.15Y-8.05
X10.15Y-8.15
X10.15Y-8.25
X10.15Y-8.35
X10.15Y-8.45
X10.15Y-8.55
X10.15Y-8.65
X10.15Y-8.75
X10.15Y-8.85
X10.45Y-8.05
X10.45Y-8.15
X10.45Y-8.25
X10.45Y-8.35
X10.45Y-8.45
X10.45Y-8.55
X10.45Y-8.65
X10.45Y-8.75
X10.45Y-8.85
X14.35Y-9.45
X14.35Y-9.55
X14.35Y-9.65
X14.35Y-9.75
X14.35Y-9.85
X14.35Y-9.95
X14.35Y-10.05
X14.35Y-10.15
X14.35Y-10.25
X14.35Y-10.35
X14.65Y-9.45
X14.65Y-9.55
X14.65Y-9.65
X14.65Y-9.75
X14.65Y-9.85
X14.65Y-9.95
X14.65Y-10.05
X14.65Y-10.15
X14.65Y-10.25
X14.65Y-10.35
X11.0Y-4.8
X11.4Y-4.8
X13.75Y-8.05
X13.75Y-8.15
X13.75Y-8.25
X13.75Y-8.35
X13.75Y-8.45
X13.75Y-8.55
X13.75Y-8.65
X13.75Y-8.75
X14.05Y-8.05
X14.05Y-8.15
X14.05Y-8.25
X14.05Y-8.35
X14.05Y-8.45
X14.05Y-8.55
X14.05Y-8.65
X14.05Y-8.75
X8.35Y-12.25
X8.35Y-12.35
X8.35Y-12.45
X8.35Y-12.55
X8.35Y-12.65
X8.35Y-12.75
X8.35Y-12.85
X8.35Y-12.95
X8.35Y-13.05
X8.35Y-13.15
X8.65Y-12.25
X8.65Y-12.35
X8.65Y-12.45
X8.65Y-12.55
X8.65Y-12.65
X8.65Y-12.75
X8.65Y-12.85
X8.65Y-12.95
X8.65Y-13.05
X8.65Y-13.15
X9.175Y-8.9
X9.175Y-9.3
X9.55Y-5.25
X9.55Y-5.35
X9.55Y-5.45
X9.55Y-5.55
X9.55Y-5.65
X9.55Y-5.75
X9.55Y-5.85
X9.85Y-5.25
X9.85Y-5.35
X9.85Y-5.45
X9.85Y-5.55
X9.85Y-5.65
X9.85Y-5.75
X9.85Y-5.85
X13.15Y-12.25
X13.15Y-12.35
X13.15Y-12.45
X13.15Y-12.55
X13.15Y-12.65
X13.15Y-12.75
X13.15Y-12.85
X13.15Y-12.95
X13.15Y-13.05
X13.15Y-13.15
X13.45Y-12.25
X13.45Y-12.35
X13.45Y-12.45
X13.45Y-12.55
X13.45Y-12.65
X13.45Y-12.75
X13.45Y-12.85
X13.45Y-12.95
X13.45Y-13.05
X13.45Y-13.15
X10.4Y-7.75
X10.8Y-7.75
X13.0Y-12.25
X13.0Y-12.65
X8.35Y-9.45
X8.35Y-9.55
X8.35Y-9.65
X8.35Y-9.75
X8.35Y-9.85
X8.35Y-9.95
X8.35Y-10.05
X8.35Y-10.15
X8.35Y-10.25
X8.35Y-10.35
X8.65Y-9.45
X8.65Y-9.55
X8.65Y-9.65
X8.65Y-9.75
X8.65Y-9.85
X8.65Y-9.95
X8.65Y-10.05
X8.65Y-10.15
X8.65Y-10.25
X8.65Y-10.35
X15.5Y-7.825
X15.9Y-7.825
X7.0Y-13.45
X7.0Y-13.55
X7.1Y-13.45
X7.1Y-13.55
X7.2Y-13.45
X7.2Y-13.55
X7.3Y-13.45
X7.3Y-13.55
X7.4Y-13.45
X7.4Y-13.55
X7.5Y-13.45
X7.5Y-13.55
X7.6Y-13.45
X7.6Y-13.55
X7.7Y-13.45
X7.7Y-13.55
X7.8Y-13.45
X7.8Y-13.55
X7.9Y-13.45
X7.9Y-13.55
X8.0Y-13.45
X8.0Y-13.55
X8.1Y-13.45
X8.1Y-13.55
X8.2Y-13.45
X8.2Y-13.55
X8.3Y-13.45
X8.3Y-13.55
X8.4Y-13.45
X8.4Y-13.55
X8.5Y-13.45
X8.5Y-13.55
X8.6Y-13.45
X8.6Y-13.55
X8.7Y-13.45
X8.7Y-13.55
X8.8Y-13.45
X8.8Y-13.55
X8.9Y-13.45
X8.9Y-13.55
X9.0Y-13.45
X9.0Y-13.55
X9.1Y-13.45
X9.1Y-13.55
X9.2Y-13.45
X9.2Y-13.55
X9.3Y-13.45
X9.3Y-13.55
X9.4Y-13.45
X9.4Y-13.55
X11.8Y-8.05
X11.8Y-8.15
X11.8Y-8.25
X9.45Y-12.25
X9.45Y-12.65
X11.7Y-7.4
X11.7Y-7.5
X11.7Y-7.6
X14.85Y-5.55
X14.85Y-5.95
X11.225Y-10.85
X11.225Y-11.25
X13.7534Y-10.85
X13.7534Y-10.95
X13.7534Y-11.05
X13.7534Y-11.15
X13.7534Y-11.25
X13.7534Y-11.35
X13.7534Y-11.45
X13.7534Y-11.55
X13.7534Y-11.65
X13.7534Y-11.75
X14.0534Y-10.85
X14.0534Y-10.95
X14.0534Y-11.05
X14.0534Y-11.15
X14.0534Y-11.25
X14.0534Y-11.35
X14.0534Y-11.45
X14.0534Y-11.55
X14.0534Y-11.65
X14.0534Y-11.75
X11.55Y-7.5
X11.55Y-7.9
X16.45Y-4.9
X16.45Y-5.1
X10.0Y-13.25
X10.4Y-13.25
X15.425Y-6.65
X15.425Y-6.85
X8.75Y-6.95
X8.75Y-7.35
X17.4Y-12.85
X17.8Y-12.85
X11.75Y-6.35
X11.75Y-6.75
X16.65Y-5.35
X16.65Y-5.75
X17.45Y-10.975
X17.85Y-10.975
X7.625Y-12.25
X7.625Y-12.35
X7.625Y-12.45
X7.625Y-12.55
X7.625Y-12.65
X7.625Y-12.75
X7.625Y-12.85
X7.625Y-12.95
X7.625Y-13.05
X7.625Y-13.15
X17.45Y-6.65
X17.85Y-6.65
X16.0Y-8.35
X16.0Y-8.75
X16.15Y-5.25
X16.15Y-5.35
X16.15Y-5.45
X16.15Y-5.55
X16.15Y-5.65
X16.15Y-5.75
X16.15Y-5.85
X16.15Y-5.95
X16.45Y-5.25
X16.45Y-5.35
X16.45Y-5.45
X16.45Y-5.55
X16.45Y-5.65
X16.45Y-5.75
X16.45Y-5.85
X16.45Y-5.95
X6.15Y-5.45
X6.55Y-5.45
X16.75Y-9.575
X16.75Y-10.575
X7.15Y-3.9
X7.15Y-4.0
X7.15Y-4.1
X7.15Y-4.2
X7.15Y-4.3
X7.15Y-4.4
X7.15Y-4.5
X7.15Y-4.6
X7.15Y-4.7
X7.15Y-4.8
X7.45Y-3.9
X7.45Y-4.0
X7.45Y-4.1
X7.45Y-4.2
X7.45Y-4.3
X7.45Y-4.4
X7.45Y-4.5
X7.45Y-4.6
X7.45Y-4.7
X7.45Y-4.8
X10.595Y-4.65
X10.595Y-4.85
X13.625Y-9.3
X13.625Y-9.7
X13.75Y-5.25
X13.75Y-5.35
X13.75Y-5.45
X13.75Y-5.55
X13.75Y-5.65
X13.75Y-5.75
X13.75Y-5.85
X13.75Y-5.95
X14.05Y-5.25
X14.05Y-5.35
X14.05Y-5.45
X14.05Y-5.55
X14.05Y-5.65
X14.05Y-5.75
X14.05Y-5.85
X14.05Y-5.95
X11.8Y-3.2
X11.8Y-3.6
X12.09Y-8.9
X12.09Y-9.3
X8.95Y-5.25
X8.95Y-5.35
X8.95Y-5.45
X8.95Y-5.55
X8.95Y-5.65
X8.95Y-5.75
X8.95Y-5.85
X8.95Y-5.95
X9.25Y-5.25
X9.25Y-5.35
X9.25Y-5.45
X9.25Y-5.55
X9.25Y-5.65
X9.25Y-5.75
X9.25Y-5.85
X9.25Y-5.95
X13.65Y-4.2
X13.65Y-4.6
X17.45Y-8.05
X17.85Y-8.05
X11.35Y-6.65
X11.35Y-6.75
X11.35Y-6.85
X11.35Y-6.95
X11.35Y-7.05
X11.35Y-7.15
X11.35Y-7.25
X11.65Y-6.65
X11.65Y-6.75
X11.65Y-6.85
X11.65Y-6.95
X11.65Y-7.05
X11.65Y-7.15
X11.65Y-7.25
X9.55Y-9.45
X9.55Y-9.55
X9.55Y-9.65
X9.55Y-9.75
X9.55Y-9.85
X9.55Y-9.95
X9.55Y-10.05
X9.55Y-10.15
X9.85Y-9.45
X9.85Y-9.55
X9.85Y-9.65
X9.85Y-9.75
X9.85Y-9.85
X9.85Y-9.95
X9.85Y-10.05
X9.85Y-10.15
X15.55Y-3.35
X15.55Y-3.75
X10.75Y-8.05
X10.75Y-8.15
X10.75Y-8.25
X10.75Y-8.35
X10.75Y-8.45
X10.75Y-8.55
X10.75Y-8.65
X10.75Y-8.75
X10.75Y-8.85
X11.05Y-8.05
X11.05Y-8.15
X11.05Y-8.25
X11.05Y-8.35
X11.05Y-8.45
X11.05Y-8.55
X11.05Y-8.65
X11.05Y-8.75
X11.05Y-8.85
X12.55Y-10.85
X12.55Y-10.95
X12.55Y-11.05
X12.55Y-11.15
X12.55Y-11.25
X12.55Y-11.35
X12.55Y-11.45
X12.55Y-11.55
X12.55Y-11.65
X12.55Y-11.75
X12.85Y-10.85
X12.85Y-10.95
X12.85Y-11.05
X12.85Y-11.15
X12.85Y-11.25
X12.85Y-11.35
X12.85Y-11.45
X12.85Y-11.55
X12.85Y-11.65
X12.85Y-11.75
X13.15Y-6.65
X13.15Y-6.75
X13.15Y-6.85
X13.15Y-6.95
X13.15Y-7.05
X13.15Y-7.15
X13.15Y-7.25
X13.15Y-7.35
X13.45Y-6.65
X13.45Y-6.75
X13.45Y-6.85
X13.45Y-6.95
X13.45Y-7.05
X13.45Y-7.15
X13.45Y-7.25
X13.45Y-7.35
X10.75Y-12.25
X10.75Y-12.35
X10.75Y-12.45
X10.75Y-12.55
X10.75Y-12.65
X10.75Y-12.75
X10.75Y-12.85
X11.05Y-12.25
X11.05Y-12.35
X11.05Y-12.45
X11.05Y-12.55
X11.05Y-12.65
X11.05Y-12.75
X11.05Y-12.85
X10.7Y-4.65
X10.7Y-5.05
X16.15Y-8.05
X16.15Y-8.15
X16.15Y-8.25
X16.15Y-8.35
X16.15Y-8.45
X16.15Y-8.55
X16.15Y-8.65
X16.15Y-8.75
X16.45Y-8.05
X16.45Y-8.15
X16.45Y-8.25
X16.45Y-8.35
X16.45Y-8.45
X16.45Y-8.55
X16.45Y-8.65
X16.45Y-8.75
X10.15Y-10.85
X10.15Y-10.95
X10.15Y-11.05
X10.15Y-11.15
X10.15Y-11.25
X10.15Y-11.35
X10.15Y-11.45
X10.15Y-11.55
X10.45Y-10.85
X10.45Y-10.95
X10.45Y-11.05
X10.45Y-11.15
X10.45Y-11.25
X10.45Y-11.35
X10.45Y-11.45
X10.45Y-11.55
X10.6Y-8.05
X10.6Y-8.45
X6.65Y-5.25
X6.65Y-5.35
X6.65Y-5.45
X6.65Y-5.55
X6.65Y-5.65
X6.65Y-5.75
X6.65Y-5.85
X6.65Y-5.95
X6.65Y-6.05
X6.65Y-6.15
X6.65Y-6.25
X6.65Y-6.35
X6.65Y-6.45
X6.65Y-6.55
X6.65Y-6.65
X6.65Y-6.75
X6.65Y-6.85
X6.65Y-6.95
X6.65Y-7.05
X6.65Y-7.15
X7.25Y-5.25
X7.25Y-5.35
X7.25Y-5.45
X7.25Y-5.55
X7.25Y-5.65
X7.25Y-5.75
X7.25Y-5.85
X7.25Y-5.95
X7.25Y-6.05
X7.25Y-6.15
X7.25Y-6.25
X7.25Y-6.35
X7.25Y-6.45
X7.25Y-6.55
X7.25Y-6.65
X7.25Y-6.75
X7.25Y-6.85
X7.25Y-6.95
X7.25Y-7.05
X7.25Y-7.15
X12.55Y-12.25
X12.55Y-12.35
X12.55Y-12.45
X12.55Y-12.55
X12.55Y-12.65
X12.55Y-12.75
X12.55Y-12.85
X12.55Y-12.95
X12.55Y-13.05
X12.55Y-13.15
X12.85Y-12.25
X12.85Y-12.35
X12.85Y-12.45
X12.85Y-12.55
X12.85Y-12.65
X12.85Y-12.75
X12.85Y-12.85
X12.85Y-12.95
X12.85Y-13.05
X12.85Y-13.15
X9.075Y-8.9
X9.075Y-9.3
X12.35Y-11.95
X12.35Y-12.35
X7.75Y-9.45
X7.75Y-9.55
X7.75Y-9.65
X7.75Y-9.75
X7.75Y-9.85
X7.75Y-9.95
X7.75Y-10.05
X7.75Y-10.15
X7.75Y-10.25
X7.75Y-10.35
X8.05Y-9.45
X8.05Y-9.55
X8.05Y-9.65
X8.05Y-9.75
X8.05Y-9.85
X8.05Y-9.95
X8.05Y-10.05
X8.05Y-10.15
X8.05Y-10.25
X8.05Y-10.35
X8.8Y-7.9
X8.8Y-8.3
X12.8Y-13.6
X12.9Y-13.6
X11.3Y-7.7
X11.3Y-7.8
X11.3Y-7.9
X14.85Y-12.25
X14.85Y-12.65
X7.625Y-10.85
X7.625Y-10.95
X7.625Y-11.05
X7.625Y-11.15
X7.625Y-11.25
X7.625Y-11.35
X7.625Y-11.45
X7.625Y-11.55
X7.625Y-11.65
X7.625Y-11.75
X10.65Y-6.65
X10.65Y-7.05
X7.425Y-12.45
X7.425Y-12.85
X11.3Y-7.4
X11.3Y-7.5
X11.3Y-7.6
X14.25Y-5.55
X14.25Y-5.95
X17.4Y-12.7
X17.8Y-12.7
X11.75Y-6.85
X11.75Y-7.25
X9.35Y-5.65
X9.35Y-6.05
X17.4Y-12.075
X17.8Y-12.075
X11.15Y-6.35
X11.15Y-6.75
X15.8Y-9.45
X15.8Y-9.85
X11.25Y-6.35
X11.25Y-6.75
X16.85Y-6.0
X16.85Y-6.4
X12.3Y-9.45
X12.3Y-9.85
X13.15Y-3.9
X13.15Y-4.0
X13.15Y-4.1
X13.15Y-4.2
X13.15Y-4.3
X13.15Y-4.4
X13.15Y-4.5
X13.15Y-4.6
X13.45Y-3.9
X13.45Y-4.0
X13.45Y-4.1
X13.45Y-4.2
X13.45Y-4.3
X13.45Y-4.4
X13.45Y-4.5
X13.45Y-4.6
X17.45Y-5.95
X17.85Y-5.95
X7.15Y-9.0
X7.15Y-9.1
X11.35Y-5.25
X11.35Y-5.35
X11.35Y-5.45
X11.35Y-5.55
X11.35Y-5.65
X11.35Y-5.75
X11.35Y-5.85
X11.35Y-5.95
X11.35Y-6.05
X11.35Y-6.15
X11.65Y-5.25
X11.65Y-5.35
X11.65Y-5.45
X11.65Y-5.55
X11.65Y-5.65
X11.65Y-5.75
X11.65Y-5.85
X11.65Y-5.95
X11.65Y-6.05
X11.65Y-6.15
X17.45Y-4.1
X17.85Y-4.1
X8.6Y-9.0
X8.6Y-9.1
X13.15Y-5.25
X13.15Y-5.35
X13.15Y-5.45
X13.15Y-5.55
X13.15Y-5.65
X13.15Y-5.75
X13.15Y-5.85
X13.15Y-5.95
X13.45Y-5.25
X13.45Y-5.35
X13.45Y-5.45
X13.45Y-5.55
X13.45Y-5.65
X13.45Y-5.75
X13.45Y-5.85
X13.45Y-5.95
X17.45Y-3.9
X17.85Y-3.9
X7.15Y-9.25
X7.55Y-9.25
X7.75Y-5.25
X7.75Y-5.35
X7.75Y-5.45
X7.75Y-5.55
X7.75Y-5.65
X7.75Y-5.75
X7.75Y-5.85
X8.05Y-5.25
X8.05Y-5.35
X8.05Y-5.45
X8.05Y-5.55
X8.05Y-5.65
X8.05Y-5.75
X8.05Y-5.85
X14.25Y-4.2
X14.25Y-4.6
X14.85Y-8.35
X14.85Y-8.75
X14.95Y-6.65
X14.95Y-6.75
X14.95Y-6.85
X14.95Y-6.95
X14.95Y-7.05
X14.95Y-7.15
X14.95Y-7.25
X14.95Y-7.35
X15.25Y-6.65
X15.25Y-6.75
X15.25Y-6.85
X15.25Y-6.95
X15.25Y-7.05
X15.25Y-7.15
X15.25Y-7.25
X15.25Y-7.35
X11.35Y-9.45
X11.35Y-9.55
X11.35Y-9.65
X11.35Y-9.75
X11.35Y-9.85
X11.35Y-9.95
X11.35Y-10.05
X11.35Y-10.15
X11.35Y-10.25
X11.35Y-10.35
X11.65Y-9.45
X11.65Y-9.55
X11.65Y-9.65
X11.65Y-9.75
X11.65Y-9.85
X11.65Y-9.95
X11.65Y-10.05
X11.65Y-10.15
X11.65Y-10.25
X11.65Y-10.35
X13.75Y-3.35
X13.75Y-3.75
X8.95Y-6.65
X8.95Y-6.75
X8.95Y-6.85
X8.95Y-6.95
X8.95Y-7.05
X8.95Y-7.15
X8.95Y-7.25
X9.25Y-6.65
X9.25Y-6.75
X9.25Y-6.85
X9.25Y-6.95
X9.25Y-7.05
X9.25Y-7.15
X9.25Y-7.25
X13.15Y-10.85
X13.15Y-10.95
X13.15Y-11.05
X13.15Y-11.15
X13.15Y-11.25
X13.15Y-11.35
X13.15Y-11.45
X13.15Y-11.55
X13.15Y-11.65
X13.15Y-11.75
X13.45Y-10.85
X13.45Y-10.95
X13.45Y-11.05
X13.45Y-11.15
X13.45Y-11.25
X13.45Y-11.35
X13.45Y-11.45
X13.45Y-11.55
X13.45Y-11.65
X13.45Y-11.75
X16.65Y-4.1
X16.65Y-4.5
X10.75Y-6.65
X10.75Y-6.75
X10.75Y-6.85
X10.75Y-6.95
X10.75Y-7.05
X10.75Y-7.15
X10.75Y-7.25
X11.05Y-6.65
X11.05Y-6.75
X11.05Y-6.85
X11.05Y-6.95
X11.05Y-7.05
X11.05Y-7.15
X11.05Y-7.25
X11.35Y-12.25
X11.35Y-12.35
X11.35Y-12.45
X11.35Y-12.55
X11.35Y-12.65
X11.35Y-12.75
X11.35Y-12.85
X11.65Y-12.25
X11.65Y-12.35
X11.65Y-12.45
X11.65Y-12.55
X11.65Y-12.65
X11.65Y-12.75
X11.65Y-12.85
X10.05Y-3.8
X10.05Y-4.2
X14.95Y-8.05
X14.95Y-8.15
X14.95Y-8.25
X14.95Y-8.35
X14.95Y-8.45
X14.95Y-8.55
X14.95Y-8.65
X14.95Y-8.75
X15.25Y-8.05
X15.25Y-8.15
X15.25Y-8.25
X15.25Y-8.35
X15.25Y-8.45
X15.25Y-8.55
X15.25Y-8.65
X15.25Y-8.75
X9.55Y-10.85
X9.55Y-10.95
X9.55Y-11.05
X9.55Y-11.15
X9.55Y-11.25
X9.55Y-11.35
X9.55Y-11.45
X9.55Y-11.55
X9.55Y-11.65
X9.85Y-10.85
X9.85Y-10.95
X9.85Y-11.05
X9.85Y-11.15
X9.85Y-11.25
X9.85Y-11.35
X9.85Y-11.45
X9.85Y-11.55
X9.85Y-11.65
X7.8Y-7.85
X8.2Y-7.85
X8.95Y-8.05
X8.95Y-8.15
X8.95Y-8.25
X8.95Y-8.35
X8.95Y-8.45
X8.95Y-8.55
X8.95Y-8.65
X8.95Y-8.75
X9.25Y-8.05
X9.25Y-8.15
X9.25Y-8.25
X9.25Y-8.35
X9.25Y-8.45
X9.25Y-8.55
X9.25Y-8.65
X9.25Y-8.75
X8.95Y-9.45
X8.95Y-9.55
X8.95Y-9.65
X8.95Y-9.75
X8.95Y-9.85
X8.95Y-9.95
X8.95Y-10.05
X8.95Y-10.15
X8.95Y-10.25
X8.95Y-10.35
X9.25Y-9.45
X9.25Y-9.55
X9.25Y-9.65
X9.25Y-9.75
X9.25Y-9.85
X9.25Y-9.95
X9.25Y-10.05
X9.25Y-10.15
X9.25Y-10.25
X9.25Y-10.35
X8.875Y-8.9
X8.875Y-9.3
X9.5Y-13.0
X9.9Y-13.0
X7.15Y-9.45
X7.15Y-9.55
X7.15Y-9.65
X7.15Y-9.75
X7.15Y-9.85
X7.15Y-9.95
X7.15Y-10.05
X7.15Y-10.15
X7.15Y-10.25
X7.15Y-10.35
X7.45Y-9.45
X7.45Y-9.55
X7.45Y-9.65
X7.45Y-9.75
X7.45Y-9.85
X7.45Y-9.95
X7.45Y-10.05
X7.45Y-10.15
X7.45Y-10.25
X7.45Y-10.35
X13.1Y-7.825
X13.5Y-7.825
X11.25Y-6.85
X11.25Y-7.25
X9.975Y-9.375
X9.975Y-9.775
X12.05Y-7.5
X12.05Y-7.9
X12.45Y-6.375
X12.85Y-6.375
X16.45Y-12.675
X16.85Y-12.675
X9.95Y-7.2
X9.95Y-7.6
X15.5Y-5.025
X15.9Y-5.025
X10.0Y-11.1
X10.0Y-11.5
X11.85Y-6.35
X11.85Y-6.75
X16.85Y-5.35
X16.85Y-5.75
X16.2Y-12.825
X16.2Y-13.825
X10.55Y-7.1
X10.55Y-7.5
X16.65Y-6.0
X16.65Y-6.4
X14.9Y-9.6
X14.9Y-10.0
X13.75Y-3.9
X13.75Y-4.0
X13.75Y-4.1
X13.75Y-4.2
X13.75Y-4.3
X13.75Y-4.4
X13.75Y-4.5
X13.75Y-4.6
X14.05Y-3.9
X14.05Y-4.0
X14.05Y-4.1
X14.05Y-4.2
X14.05Y-4.3
X14.05Y-4.4
X14.05Y-4.5
X14.05Y-4.6
X16.025Y-6.5
X16.025Y-6.7
X17.45Y-5.5
X17.85Y-5.5
X16.65Y-8.15
X16.65Y-8.55
X12.55Y-3.9
X12.55Y-4.0
X12.55Y-4.1
X12.55Y-4.2
X12.55Y-4.3
X12.55Y-4.4
X12.55Y-4.5
X12.55Y-4.6
X12.85Y-3.9
X12.85Y-4.0
X12.85Y-4.1
X12.85Y-4.2
X12.85Y-4.3
X12.85Y-4.4
X12.85Y-4.5
X12.85Y-4.6
X11.8Y-4.95
X11.8Y-5.35
X17.4Y-13.2
X17.4Y-13.6
X8.35Y-3.9
X8.35Y-4.0
X8.35Y-4.1
X8.35Y-4.2
X8.35Y-4.3
X8.35Y-4.4
X8.35Y-4.5
X8.35Y-4.6
X8.35Y-4.7
X8.65Y-3.9
X8.65Y-4.0
X8.65Y-4.1
X8.65Y-4.2
X8.65Y-4.3
X8.65Y-4.4
X8.65Y-4.5
X8.65Y-4.6
X8.65Y-4.7
X16.0Y-3.9
X16.0Y-4.1
X6.15Y-9.35
X6.55Y-9.35
X11.95Y-5.25
X11.95Y-5.35
X11.95Y-5.45
X11.95Y-5.55
X11.95Y-5.65
X11.95Y-5.75
X11.95Y-5.85
X11.95Y-5.95
X12.25Y-5.25
X12.25Y-5.35
X12.25Y-5.45
X12.25Y-5.55
X12.25Y-5.65
X12.25Y-5.75
X12.25Y-5.85
X12.25Y-5.95
X15.45Y-4.2
X15.45Y-4.6
X11.9Y-8.9
X11.9Y-9.3
X16.15Y-6.65
X16.15Y-6.75
X16.15Y-6.85
X16.15Y-6.95
X16.15Y-7.05
X16.15Y-7.15
X16.15Y-7.25
X16.15Y-7.35
X16.45Y-6.65
X16.45Y-6.75
X16.45Y-6.85
X16.45Y-6.95
X16.45Y-7.05
X16.45Y-7.15
X16.45Y-7.25
X16.45Y-7.35
X10.6Y-4.07
X10.6Y-4.47
X7.0Y-9.25
X7.0Y-9.65
X8.35Y-6.65
X8.35Y-6.75
X8.35Y-6.85
X8.35Y-6.95
X8.35Y-7.05
X8.35Y-7.15
X8.35Y-7.25
X8.35Y-7.35
X8.65Y-6.65
X8.65Y-6.75
X8.65Y-6.85
X8.65Y-6.95
X8.65Y-7.05
X8.65Y-7.15
X8.65Y-7.25
X8.65Y-7.35
X11.35Y-10.85
X11.35Y-10.95
X11.35Y-11.05
X11.35Y-11.15
X11.35Y-11.25
X11.35Y-11.35
X11.35Y-11.45
X11.65Y-10.85
X11.65Y-10.95
X11.65Y-11.05
X11.65Y-11.15
X11.65Y-11.25
X11.65Y-11.35
X11.65Y-11.45
X11.2Y-4.1
X11.2Y-4.5
X15.55Y-8.05
X15.55Y-8.15
X15.55Y-8.25
X15.55Y-8.35
X15.55Y-8.45
X15.55Y-8.55
X15.55Y-8.65
X15.55Y-8.75
X15.85Y-8.05
X15.85Y-8.15
X15.85Y-8.25
X15.85Y-8.35
X15.85Y-8.45
X15.85Y-8.55
X15.85Y-8.65
X15.85Y-8.75
X14.35Y-10.85
X14.35Y-10.95
X14.35Y-11.05
X14.35Y-11.15
X14.35Y-11.25
X14.35Y-11.35
X14.35Y-11.45
X14.35Y-11.55
X14.35Y-11.65
X14.35Y-11.75
X14.65Y-10.85
X14.65Y-10.95
X14.65Y-11.05
X14.65Y-11.15
X14.65Y-11.25
X14.65Y-11.35
X14.65Y-11.45
X14.65Y-11.55
X14.65Y-11.65
X14.65Y-11.75
X10.8Y-4.65
X10.8Y-5.05
X8.35Y-8.05
X8.35Y-8.15
X8.35Y-8.25
X8.35Y-8.35
X8.35Y-8.45
X8.35Y-8.55
X8.35Y-8.65
X8.35Y-8.75
X8.65Y-8.05
X8.65Y-8.15
X8.65Y-8.25
X8.65Y-8.35
X8.65Y-8.45
X8.65Y-8.55
X8.65Y-8.65
X8.65Y-8.75
X9.55Y-12.25
X9.55Y-12.35
X9.55Y-12.45
X9.55Y-12.55
X9.55Y-12.65
X9.55Y-12.75
X9.55Y-12.85
X9.85Y-12.25
X9.85Y-12.35
X9.85Y-12.45
X9.85Y-12.55
X9.85Y-12.65
X9.85Y-12.75
X9.85Y-12.85
X14.35Y-8.05
X14.35Y-8.15
X14.35Y-8.25
X14.35Y-8.35
X14.35Y-8.45
X14.35Y-8.55
X14.35Y-8.65
X14.35Y-8.75
X14.65Y-8.05
X14.65Y-8.15
X14.65Y-8.25
X14.65Y-8.35
X14.65Y-8.45
X14.65Y-8.55
X14.65Y-8.65
X14.65Y-8.75
X15.55Y-12.25
X15.55Y-12.35
X15.55Y-12.45
X15.55Y-12.55
X15.55Y-12.65
X15.55Y-12.75
X15.55Y-12.85
X15.55Y-12.95
X15.55Y-13.05
X15.55Y-13.15
X15.85Y-12.25
X15.85Y-12.35
X15.85Y-12.45
X15.85Y-12.55
X15.85Y-12.65
X15.85Y-12.75
X15.85Y-12.85
X15.85Y-12.95
X15.85Y-13.05
X15.85Y-13.15
X9.975Y-8.05
X9.975Y-8.45
X11.175Y-12.45
X11.175Y-12.85
X16.75Y-6.65
X16.75Y-6.75
X16.75Y-6.85
X16.75Y-6.95
X16.75Y-7.05
X16.75Y-7.15
X16.75Y-7.25
X17.05Y-6.65
X17.05Y-6.75
X17.05Y-6.85
X17.05Y-6.95
X17.05Y-7.05
X17.05Y-7.15
X17.05Y-7.25
X11.95Y-12.25
X11.95Y-12.35
X11.95Y-12.45
X11.95Y-12.55
X11.95Y-12.65
X11.95Y-12.75
X11.95Y-12.85
X11.95Y-12.95
X12.25Y-12.25
X12.25Y-12.35
X12.25Y-12.45
X12.25Y-12.55
X12.25Y-12.65
X12.25Y-12.75
X12.25Y-12.85
X12.25Y-12.95
X8.4Y-7.55
X8.8Y-7.55
X16.15Y-3.9
X16.15Y-4.0
X16.15Y-4.1
X16.15Y-4.2
X16.15Y-4.3
X16.15Y-4.4
X16.15Y-4.5
X16.15Y-4.6
X16.45Y-3.9
X16.45Y-4.0
X16.45Y-4.1
X16.45Y-4.2
X16.45Y-4.3
X16.45Y-4.4
X16.45Y-4.5
X16.45Y-4.6
X16.4Y-10.775
X16.4Y-11.175
X6.65Y-10.85
X6.65Y-10.95
X6.65Y-11.05
X6.65Y-11.15
X6.65Y-11.25
X6.65Y-11.35
X6.65Y-11.45
X6.65Y-11.55
X6.65Y-11.65
X6.65Y-11.75
X6.65Y-11.85
X6.65Y-11.95
X6.65Y-12.05
X6.65Y-12.15
X6.65Y-12.25
X6.65Y-12.35
X6.65Y-12.45
X6.65Y-12.55
X6.65Y-12.65
X6.65Y-12.75
X7.25Y-10.85
X7.25Y-10.95
X7.25Y-11.05
X7.25Y-11.15
X7.25Y-11.25
X7.25Y-11.35
X7.25Y-11.45
X7.25Y-11.55
X7.25Y-11.65
X7.25Y-11.75
X7.25Y-11.85
X7.25Y-11.95
X7.25Y-12.05
X7.25Y-12.15
X7.25Y-12.25
X7.25Y-12.35
X7.25Y-12.45
X7.25Y-12.55
X7.25Y-12.65
X7.25Y-12.75
X9.275Y-8.9
X9.275Y-9.3
X13.575Y-12.25
X13.575Y-12.65
X11.0Y-7.7
X11.0Y-7.8
X11.0Y-7.9
X16.25Y-12.275
X16.25Y-12.675
X11.15Y-7.5
X11.15Y-7.9
X12.375Y-6.95
X12.375Y-7.35
X17.4Y-13.0
X17.8Y-13.0
X14.25Y-6.95
X14.25Y-7.35
X14.8Y-5.1
X14.8Y-5.5
X16.45Y-12.85
X16.85Y-12.85
X15.5Y-6.425
X15.9Y-6.425
X13.65Y-5.55
X13.65Y-5.95
X16.45Y-11.75
X16.85Y-11.75
X7.75Y-12.25
X7.75Y-12.35
X7.75Y-12.45
X7.75Y-12.55
X7.75Y-12.65
X7.75Y-12.75
X7.75Y-12.85
X7.75Y-12.95
X7.75Y-13.05
X7.75Y-13.15
X8.05Y-12.25
X8.05Y-12.35
X8.05Y-12.45
X8.05Y-12.55
X8.05Y-12.65
X8.05Y-12.75
X8.05Y-12.85
X8.05Y-12.95
X8.05Y-13.05
X8.05Y-13.15
X11.85Y-6.85
X11.85Y-7.25
X12.775Y-5.025
X13.175Y-5.025
X6.375Y-10.2
X6.375Y-10.6
X11.95Y-3.9
X11.95Y-4.0
X11.95Y-4.1
X11.95Y-4.2
X11.95Y-4.3
X11.95Y-4.4
X11.95Y-4.5
X11.95Y-4.6
X12.25Y-3.9
X12.25Y-4.0
X12.25Y-4.1
X12.25Y-4.2
X12.25Y-4.3
X12.25Y-4.4
X12.25Y-4.5
X12.25Y-4.6
X14.85Y-6.95
X14.85Y-7.35
X12.1Y-5.025
X12.5Y-5.025
X8.05Y-9.0
X8.05Y-9.1
X11.35Y-3.9
X11.35Y-4.0
X11.35Y-4.1
X11.35Y-4.2
X11.35Y-4.3
X11.35Y-4.4
X11.35Y-4.5
X11.65Y-3.9
X11.65Y-4.0
X11.65Y-4.1
X11.65Y-4.2
X11.65Y-4.3
X11.65Y-4.4
X11.65Y-4.5
X16.65Y-4.675
X16.65Y-5.075
X15.0Y-9.375
X15.0Y-9.775
X7.75Y-3.9
X7.75Y-4.0
X7.75Y-4.1
X7.75Y-4.2
X7.75Y-4.3
X7.75Y-4.4
X7.75Y-4.5
X7.75Y-4.6
X7.75Y-4.7
X8.05Y-3.9
X8.05Y-4.0
X8.05Y-4.1
X8.05Y-4.2
X8.05Y-4.3
X8.05Y-4.4
X8.05Y-4.5
X8.05Y-4.6
X8.05Y-4.7
X11.95Y-3.35
X11.95Y-3.75
X17.45Y-9.225
X17.45Y-10.225
X15.55Y-5.25
X15.55Y-5.35
X15.55Y-5.45
X15.55Y-5.55
X15.55Y-5.65
X15.55Y-5.75
X15.55Y-5.85
X15.55Y-5.95
X15.85Y-5.25
X15.85Y-5.35
X15.85Y-5.45
X15.85Y-5.55
X15.85Y-5.65
X15.85Y-5.75
X15.85Y-5.85
X15.85Y-5.95
X14.85Y-4.2
X14.85Y-4.6
X7.75Y-9.0
X7.75Y-9.1
X10.15Y-6.65
X10.15Y-6.75
X10.15Y-6.85
X10.15Y-6.95
X10.15Y-7.05
X10.15Y-7.15
X10.15Y-7.25
X10.45Y-6.65
X10.45Y-6.75
X10.45Y-6.85
X10.45Y-6.95
X10.45Y-7.05
X10.45Y-7.15
X10.45Y-7.25
X10.75Y-10.85
X10.75Y-10.95
X10.75Y-11.05
X10.75Y-11.15
X10.75Y-11.25
X10.75Y-11.35
X10.75Y-11.45
X11.05Y-10.85
X11.05Y-10.95
X11.05Y-11.05
X11.05Y-11.15
X11.05Y-11.25
X11.05Y-11.35
X11.05Y-11.45
X13.15Y-3.35
X13.15Y-3.75
X17.45Y-9.125
X17.85Y-9.125
X14.35Y-6.65
X14.35Y-6.75
X14.35Y-6.85
X14.35Y-6.95
X14.35Y-7.05
X14.35Y-7.15
X14.35Y-7.25
X14.35Y-7.35
X14.65Y-6.65
X14.65Y-6.75
X14.65Y-6.85
X14.65Y-6.95
X14.65Y-7.05
X14.65Y-7.15
X14.65Y-7.25
X14.65Y-7.35
X10.75Y-9.45
X10.75Y-9.55
X10.75Y-9.65
X10.75Y-9.75
X10.75Y-9.85
X10.75Y-9.95
X10.75Y-10.05
X10.75Y-10.15
X10.75Y-10.25
X10.75Y-10.35
X11.05Y-9.45
X11.05Y-9.55
X11.05Y-9.65
X11.05Y-9.75
X11.05Y-9.85
X11.05Y-9.95
X11.05Y-10.05
X11.05Y-10.15
X11.05Y-10.25
X11.05Y-10.35
X12.45Y-4.2
X12.45Y-4.6
X13.15Y-8.05
X13.15Y-8.15
X13.15Y-8.25
X13.15Y-8.35
X13.15Y-8.45
X13.15Y-8.55
X13.15Y-8.65
X13.15Y-8.75
X13.45Y-8.05
X13.45Y-8.15
X13.45Y-8.25
X13.45Y-8.35
X13.45Y-8.45
X13.45Y-8.55
X13.45Y-8.65
X13.45Y-8.75
X10.15Y-3.8
X10.15Y-3.9
X10.15Y-4.0
X10.15Y-4.1
X10.15Y-4.2
X10.15Y-4.3
X10.15Y-4.4
X10.45Y-3.8
X10.45Y-3.9
X10.45Y-4.0
X10.45Y-4.1
X10.45Y-4.2
X10.45Y-4.3
X10.45Y-4.4
X16.55Y-3.65
X16.55Y-4.05
X11.95Y-8.05
X11.95Y-8.15
X11.95Y-8.25
X11.95Y-8.35
X11.95Y-8.45
X11.95Y-8.55
X11.95Y-8.65
X11.95Y-8.75
X12.25Y-8.05
X12.25Y-8.15
X12.25Y-8.25
X12.25Y-8.35
X12.25Y-8.45
X12.25Y-8.55
X12.25Y-8.65
X12.25Y-8.75
X14.95Y-12.25
X14.95Y-12.35
X14.95Y-12.45
X14.95Y-12.55
X14.95Y-12.65
X14.95Y-12.75
X14.95Y-12.85
X14.95Y-12.95
X14.95Y-13.05
X14.95Y-13.15
X15.25Y-12.25
X15.25Y-12.35
X15.25Y-12.45
X15.25Y-12.55
X15.25Y-12.65
X15.25Y-12.75
X15.25Y-12.85
X15.25Y-12.95
X15.25Y-13.05
X15.25Y-13.15
X13.65Y-8.35
X13.65Y-8.75
X7.15Y-8.05
X7.15Y-8.15
X7.15Y-8.25
X7.15Y-8.35
X7.15Y-8.45
X7.15Y-8.55
X7.15Y-8.65
X7.45Y-8.05
X7.45Y-8.15
X7.45Y-8.25
X7.45Y-8.35
X7.45Y-8.45
X7.45Y-8.55
X7.45Y-8.65
X8.95Y-10.85
X8.95Y-10.95
X8.95Y-11.05
X8.95Y-11.15
X8.95Y-11.25
X8.95Y-11.35
X8.95Y-11.45
X8.95Y-11.55
X8.95Y-11.65
X9.25Y-10.85
X9.25Y-10.95
X9.25Y-11.05
X9.25Y-11.15
X9.25Y-11.25
X9.25Y-11.35
X9.25Y-11.45
X9.25Y-11.55
X9.25Y-11.65
X9.425Y-8.05
X9.425Y-8.45
X11.15Y-11.05
X11.15Y-11.45
X10.15Y-12.25
X10.15Y-12.35
X10.15Y-12.45
X10.15Y-12.55
X10.15Y-12.65
X10.15Y-12.75
X10.15Y-12.85
X10.45Y-12.25
X10.45Y-12.35
X10.45Y-12.45
X10.45Y-12.55
X10.45Y-12.65
X10.45Y-12.75
X10.45Y-12.85
X8.175Y-8.05
X8.175Y-8.45
X12.5Y-7.825
X12.9Y-7.825
X11.15Y-6.85
X11.15Y-7.25
X15.425Y-5.25
X15.425Y-5.45
X14.575Y-12.1
X14.975Y-12.1
X10.0Y-13.35
X10.0Y-13.45
X10.0Y-13.55
X13.05Y-6.4
X13.45Y-6.4
X7.3Y-10.675
X7.7Y-10.675
X11.7Y-7.7
X11.7Y-7.8
X11.7Y-7.9
X10.05Y-6.65
X10.05Y-7.05
X16.45Y-12.075
X16.85Y-12.075
X10.925Y-13.075
X11.325Y-13.075
X13.65Y-6.4
X14.05Y-6.4
X13.05Y-5.55
X13.05Y-5.95
X16.45Y-11.45
X16.85Y-11.45
X11.85Y-7.5
X11.85Y-7.9
X11.25Y-5.75
X11.25Y-6.15
X12.175Y-9.45
X12.175Y-9.85
X15.55Y-3.9
X15.55Y-4.0
X15.55Y-4.1
X15.55Y-4.2
X15.55Y-4.3
X15.55Y-4.4
X15.55Y-4.5
X15.55Y-4.6
X15.85Y-3.9
X15.85Y-4.0
X15.85Y-4.1
X15.85Y-4.2
X15.85Y-4.3
X15.85Y-4.4
X15.85Y-4.5
X15.85Y-4.6
X8.85Y-5.55
X8.85Y-5.95
X17.1Y-9.575
X17.1Y-10.575
X10.75Y-3.9
X10.75Y-4.0
X10.75Y-4.1
X10.75Y-4.2
X10.75Y-4.3
X10.75Y-4.4
X10.75Y-4.5
X11.05Y-3.9
X11.05Y-4.0
X11.05Y-4.1
X11.05Y-4.2
X11.05Y-4.3
X11.05Y-4.4
X11.05Y-4.5
X10.65Y-5.35
X10.65Y-5.75
X11.7Y-8.9
X11.7Y-9.3
X12.55Y-5.25
X12.55Y-5.35
X12.55Y-5.45
X12.55Y-5.55
X12.55Y-5.65
X12.55Y-5.75
X12.55Y-5.85
X12.55Y-5.95
X12.85Y-5.25
X12.85Y-5.35
X12.85Y-5.45
X12.85Y-5.55
X12.85Y-5.65
X12.85Y-5.75
X12.85Y-5.85
X12.85Y-5.95
X14.225Y-9.3
X14.225Y-9.7
X14.95Y-5.25
X14.95Y-5.35
X14.95Y-5.45
X14.95Y-5.55
X14.95Y-5.65
X14.95Y-5.75
X14.95Y-5.85
X14.95Y-5.95
X15.25Y-5.25
X15.25Y-5.35
X15.25Y-5.45
X15.25Y-5.55
X15.25Y-5.65
X15.25Y-5.75
X15.25Y-5.85
X15.25Y-5.95
X16.075Y-3.4
X16.075Y-3.6
X11.25Y-8.05
X11.25Y-8.45
X10.15Y-5.25
X10.15Y-5.35
X10.15Y-5.45
X10.15Y-5.55
X10.15Y-5.65
X10.15Y-5.75
X10.15Y-5.85
X10.15Y-5.95
X10.45Y-5.25
X10.45Y-5.35
X10.45Y-5.45
X10.45Y-5.55
X10.45Y-5.65
X10.45Y-5.75
X10.45Y-5.85
X10.45Y-5.95
X12.55Y-9.45
X12.55Y-9.55
X12.55Y-9.65
X12.55Y-9.75
X12.55Y-9.85
X12.55Y-9.95
X12.55Y-10.05
X12.55Y-10.15
X12.55Y-10.25
X12.55Y-10.35
X12.85Y-9.45
X12.85Y-9.55
X12.85Y-9.65
X12.85Y-9.75
X12.85Y-9.85
X12.85Y-9.95
X12.85Y-10.05
X12.85Y-10.15
X12.85Y-10.25
X12.85Y-10.35
X14.35Y-3.35
X14.35Y-3.75
X8.35Y-9.0
X8.35Y-9.1
X13.75Y-6.65
X13.75Y-6.75
X13.75Y-6.85
X13.75Y-6.95
X13.75Y-7.05
X13.75Y-7.15
X13.75Y-7.25
X13.75Y-7.35
X14.05Y-6.65
X14.05Y-6.75
X14.05Y-6.85
X14.05Y-6.95
X14.05Y-7.05
X14.05Y-7.15
X14.05Y-7.25
X14.05Y-7.35
X11.95Y-10.85
X11.95Y-10.95
X11.95Y-11.05
X11.95Y-11.15
X11.95Y-11.25
X11.95Y-11.35
X11.95Y-11.45
X12.25Y-10.85
X12.25Y-10.95
X12.25Y-11.05
X12.25Y-11.15
X12.25Y-11.25
X12.25Y-11.35
X12.25Y-11.45
X8.175Y-4.35
X8.175Y-4.75
X11.35Y-8.05
X11.35Y-8.15
X11.35Y-8.25
X11.35Y-8.35
X11.35Y-8.45
X11.35Y-8.55
X11.35Y-8.65
X11.65Y-8.05
X11.65Y-8.15
X11.65Y-8.25
X11.65Y-8.35
X11.65Y-8.45
X11.65Y-8.55
X11.65Y-8.65
X16.15Y-9.45
X16.15Y-9.55
X16.15Y-9.65
X16.15Y-9.75
X16.15Y-9.85
X16.15Y-9.95
X16.15Y-10.05
X16.15Y-10.15
X16.45Y-9.45
X16.45Y-9.55
X16.45Y-9.65
X16.45Y-9.75
X16.45Y-9.85
X16.45Y-9.95
X16.45Y-10.05
X16.45Y-10.15
X16.85Y-4.1
X16.85Y-4.5
X9.55Y-8.05
X9.55Y-8.15
X9.55Y-8.25
X9.55Y-8.35
X9.55Y-8.45
X9.55Y-8.55
X9.55Y-8.65
X9.55Y-8.75
X9.85Y-8.05
X9.85Y-8.15
X9.85Y-8.25
X9.85Y-8.35
X9.85Y-8.45
X9.85Y-8.55
X9.85Y-8.65
X9.85Y-8.75
X6.55Y-9.45
X6.55Y-9.55
X6.55Y-9.65
X6.55Y-9.75
X6.55Y-9.85
X6.55Y-9.95
X6.55Y-10.05
X6.55Y-10.15
X6.55Y-10.25
X6.55Y-10.35
X6.85Y-9.45
X6.85Y-9.55
X6.85Y-9.65
X6.85Y-9.75
X6.85Y-9.85
X6.85Y-9.95
X6.85Y-10.05
X6.85Y-10.15
X6.85Y-10.25
X6.85Y-10.35
X12.45Y-8.35
X12.45Y-8.75
X12.55Y-8.05
X12.55Y-8.15
X12.55Y-8.25
X12.55Y-8.35
X12.55Y-8.45
X12.55Y-8.55
X12.55Y-8.65
X12.55Y-8.75
X12.85Y-8.05
X12.85Y-8.15
X12.85Y-8.25
X12.85Y-8.35
X12.85Y-8.45
X12.85Y-8.55
X12.85Y-8.65
X12.85Y-8.75
X14.35Y-12.25
X14.35Y-12.35
X14.35Y-12.45
X14.35Y-12.55
X14.35Y-12.65
X14.35Y-12.75
X14.35Y-12.85
X14.35Y-12.95
X14.35Y-13.05
X14.35Y-13.15
X14.65Y-12.25
X14.65Y-12.35
X14.65Y-12.45
X14.65Y-12.55
X14.65Y-12.65
X14.65Y-12.75
X14.65Y-12.85
X14.65Y-12.95
X14.65Y-13.05
X14.65Y-13.15
X16.075Y-7.6
X16.475Y-7.6
X7.0Y-3.5
X7.0Y-3.6
X7.1Y-3.5
X7.1Y-3.6
X7.2Y-3.5
X7.2Y-3.6
X7.3Y-3.5
X7.3Y-3.6
X7.4Y-3.5
X7.4Y-3.6
X7.5Y-3.5
X7.5Y-3.6
X7.6Y-3.5
X7.6Y-3.6
X7.7Y-3.5
X7.7Y-3.6
X7.8Y-3.5
X7.8Y-3.6
X7.9Y-3.5
X7.9Y-3.6
X8.0Y-3.5
X8.0Y-3.6
X8.1Y-3.5
X8.1Y-3.6
X8.2Y-3.5
X8.2Y-3.6
X8.3Y-3.5
X8.3Y-3.6
X8.4Y-3.5
X8.4Y-3.6
X8.5Y-3.5
X8.5Y-3.6
X8.6Y-3.5
X8.6Y-3.6
X8.7Y-3.5
X8.7Y-3.6
X8.8Y-3.5
X8.8Y-3.6
X8.9Y-3.5
X8.9Y-3.6
X9.0Y-3.5
X9.0Y-3.6
X9.1Y-3.5
X9.1Y-3.6
X9.2Y-3.5
X9.2Y-3.6
X9.3Y-3.5
X9.3Y-3.6
X9.4Y-3.5
X9.4Y-3.6
X6.375Y-10.775
X6.375Y-11.175
X8.95Y-12.25
X8.95Y-12.35
X8.95Y-12.45
X8.95Y-12.55
X8.95Y-12.65
X8.95Y-12.75
X8.95Y-12.85
X8.95Y-12.95
X9.25Y-12.25
X9.25Y-12.35
X9.25Y-12.45
X9.25Y-12.55
X9.25Y-12.65
X9.25Y-12.75
X9.25Y-12.85
X9.25Y-12.95
X10.4Y-7.85
X10.8Y-7.85
X9.475Y-8.9
X9.475Y-9.3
X12.375Y-10.85
X12.375Y-11.25
X6.375Y-11.35
X6.375Y-11.45
X6.375Y-11.55
X6.375Y-11.65
X6.375Y-11.75
X6.375Y-11.85
X6.375Y-11.95
X6.375Y-12.05
X6.375Y-12.15
X6.375Y-12.25
X10.05Y-5.25
X10.05Y-5.65
X12.2Y-11.7
X12.2Y-12.1
X16.65Y-6.9
X16.65Y-7.3
X13.05Y-6.95
X13.05Y-7.35
X10.0Y-13.125
X10.4Y-13.125
X16.075Y-7.7
X16.075Y-7.9
X16.0Y-5.45
X16.0Y-5.85
X17.4Y-11.75
X17.8Y-11.75
X11.125Y-13.5
X11.9124Y-13.5
X16.1Y-6.4
X16.5Y-6.4
X12.45Y-5.55
X12.45Y-5.95
X17.45Y-10.475
X17.45Y-10.875
X7.45Y-5.3
X7.45Y-5.7
X11.8Y-8.9
X11.8Y-9.3
X14.95Y-3.9
X14.95Y-4.0
X14.95Y-4.1
X14.95Y-4.2
X14.95Y-4.3
X14.95Y-4.4
X14.95Y-4.5
X14.95Y-4.6
X15.25Y-3.9
X15.25Y-4.0
X15.25Y-4.1
X15.25Y-4.2
X15.25Y-4.3
X15.25Y-4.4
X15.25Y-4.5
X15.25Y-4.6
X17.45Y-6.4
X17.85Y-6.4
X6.8Y-9.0
X6.8Y-9.1
X9.55Y-3.9
X9.55Y-4.0
X9.55Y-4.1
X9.55Y-4.2
X9.55Y-4.3
X9.55Y-4.4
X9.55Y-4.5
X9.55Y-4.6
X9.85Y-3.9
X9.85Y-4.0
X9.85Y-4.1
X9.85Y-4.2
X9.85Y-4.3
X9.85Y-4.4
X9.85Y-4.5
X9.85Y-4.6
X11.0Y-4.9
X11.4Y-4.9
X6.55Y-3.9
X6.55Y-4.0
X6.55Y-4.1
X6.55Y-4.2
X6.55Y-4.3
X6.55Y-4.4
X6.55Y-4.5
X6.55Y-4.6
X6.55Y-4.7
X6.55Y-4.8
X6.85Y-3.9
X6.85Y-4.0
X6.85Y-4.1
X6.85Y-4.2
X6.85Y-4.3
X6.85Y-4.4
X6.85Y-4.5
X6.85Y-4.6
X6.85Y-4.7
X6.85Y-4.8
X16.35Y-3.55
X16.75Y-3.55
X13.025Y-9.5
X13.025Y-9.9
X10.75Y-5.25
X10.75Y-5.35
X10.75Y-5.45
X10.75Y-5.55
X10.75Y-5.65
X10.75Y-5.75
X10.75Y-5.85
X11.05Y-5.25
X11.05Y-5.35
X11.05Y-5.45
X11.05Y-5.55
X11.05Y-5.65
X11.05Y-5.75
X11.05Y-5.85
X7.55Y-4.875
X7.95Y-4.875
X11.35Y-8.9
X11.35Y-9.3
X11.95Y-6.65
X11.95Y-6.75
X11.95Y-6.85
X11.95Y-6.95
X11.95Y-7.05
X11.95Y-7.15
X11.95Y-7.25
X11.95Y-7.35
X12.25Y-6.65
X12.25Y-6.75
X12.25Y-6.85
X12.25Y-6.95
X12.25Y-7.05
X12.25Y-7.15
X12.25Y-7.25
X12.25Y-7.35
X10.15Y-9.45
X10.15Y-9.55
X10.15Y-9.65
X10.15Y-9.75
X10.15Y-9.85
X10.15Y-9.95
X10.15Y-10.05
X10.15Y-10.15
X10.45Y-9.45
X10.45Y-9.55
X10.45Y-9.65
X10.45Y-9.75
X10.45Y-9.85
X10.45Y-9.95
X10.45Y-10.05
X10.45Y-10.15
X12.55Y-3.35
X12.55Y-3.75
X12.55Y-6.65
X12.55Y-6.75
X12.55Y-6.85
X12.55Y-6.95
X12.55Y-7.05
X12.55Y-7.15
X12.55Y-7.25
X12.55Y-7.35
X12.85Y-6.65
X12.85Y-6.75
X12.85Y-6.85
X12.85Y-6.95
X12.85Y-7.05
X12.85Y-7.15
X12.85Y-7.25
X12.85Y-7.35
X13.15Y-9.45
X13.15Y-9.55
X13.15Y-9.65
X13.15Y-9.75
X13.15Y-9.85
X13.15Y-9.95
X13.15Y-10.05
X13.15Y-10.15
X13.15Y-10.25
X13.15Y-10.35
X13.45Y-9.45
X13.45Y-9.55
X13.45Y-9.65
X13.45Y-9.75
X13.45Y-9.85
X13.45Y-9.95
X13.45Y-10.05
X13.45Y-10.15
X13.45Y-10.25
X13.45Y-10.35
X6.55Y-8.05
X6.55Y-8.15
X6.55Y-8.25
X6.55Y-8.35
X6.55Y-8.45
X6.55Y-8.55
X6.55Y-8.65
X6.85Y-8.05
X6.85Y-8.15
X6.85Y-8.25
X6.85Y-8.35
X6.85Y-8.45
X6.85Y-8.55
X6.85Y-8.65
X15.55Y-10.85
X15.55Y-10.95
X15.55Y-11.05
X15.55Y-11.15
X15.55Y-11.25
X15.55Y-11.35
X15.55Y-11.45
X15.55Y-11.55
X15.55Y-11.65
X15.55Y-11.75
X15.85Y-10.85
X15.85Y-10.95
X15.85Y-11.05
X15.85Y-11.15
X15.85Y-11.25
X15.85Y-11.35
X15.85Y-11.45
X15.85Y-11.55
X15.85Y-11.65
X15.85Y-11.75
X10.55Y-5.35
X10.55Y-5.75
X9.55Y-6.65
X9.55Y-6.75
X9.55Y-6.85
X9.55Y-6.95
X9.55Y-7.05
X9.55Y-7.15
X9.55Y-7.25
X9.85Y-6.65
X9.85Y-6.75
X9.85Y-6.85
X9.85Y-6.95
X9.85Y-7.05
X9.85Y-7.15
X9.85Y-7.25
X7.75Y-10.85
X7.75Y-10.95
X7.75Y-11.05
X7.75Y-11.15
X7.75Y-11.25
X7.75Y-11.35
X7.75Y-11.45
X7.75Y-11.55
X7.75Y-11.65
X7.75Y-11.75
X8.05Y-10.85
X8.05Y-10.95
X8.05Y-11.05
X8.05Y-11.15
X8.05Y-11.25
X8.05Y-11.35
X8.05Y-11.45
X8.05Y-11.55
X8.05Y-11.65
X8.05Y-11.75
X9.375Y-8.9
X9.375Y-9.3
X7.75Y-8.05
X7.75Y-8.15
X7.75Y-8.25
X7.75Y-8.35
X7.75Y-8.45
X7.75Y-8.55
X7.75Y-8.65
X7.75Y-8.75
X8.05Y-8.05
X8.05Y-8.15
X8.05Y-8.25
X8.05Y-8.35
X8.05Y-8.45
X8.05Y-8.55
X8.05Y-8.65
X8.05Y-8.75
X13.75Y-12.25
X13.75Y-12.35
X13.75Y-12.45
X13.75Y-12.55
X13.75Y-12.65
X13.75Y-12.75
X13.75Y-12.85
X13.75Y-12.95
X13.75Y-13.05
X13.75Y-13.15
X14.05Y-12.25
X14.05Y-12.35
X14.05Y-12.45
X14.05Y-12.55
X14.05Y-12.65
X14.05Y-12.75
X14.05Y-12.85
X14.05Y-12.95
X14.05Y-13.05
X14.05Y-13.15
X8.0Y-7.7
X8.4Y-7.7
X8.35Y-10.85
X8.35Y-10.95
X8.35Y-11.05
X8.35Y-11.15
X8.35Y-11.25
X8.35Y-11.35
X8.35Y-11.45
X8.35Y-11.55
X8.35Y-11.65
X8.35Y-11.75
X8.65Y-10.85
X8.65Y-10.95
X8.65Y-11.05
X8.65Y-11.15
X8.65Y-11.25
X8.65Y-11.35
X8.65Y-11.45
X8.65Y-11.55
X8.65Y-11.65
X8.65Y-11.75
X6.15Y-7.85
X6.55Y-7.85
X15.3Y-12.1
X15.7Y-12.1
X16.75Y-8.05
X16.75Y-8.15
X16.75Y-8.25
X16.75Y-8.35
X16.75Y-8.45
X16.75Y-8.55
X16.75Y-8.65
X17.05Y-8.05
X17.05Y-8.15
X17.05Y-8.25
X17.05Y-8.35
X17.05Y-8.45
X17.05Y-8.55
X17.05Y-8.65
X8.8Y-13.15
X8.9Y-13.15
X9.0Y-13.15
X9.1Y-13.15
X9.2Y-13.15
X9.3Y-13.15
X9.4Y-13.15
X9.5Y-13.15
X9.6Y-13.15
X9.7Y-13.15
X15.35Y-12.25
X15.35Y-12.65
X11.8Y-8.45
X11.8Y-8.55
X11.8Y-8.65
X16.05Y-4.975
X16.05Y-5.175
X11.0Y-12.1
X11.4Y-12.1
X11.95Y-7.5
X11.95Y-7.9
X11.9Y-6.425
X12.3Y-6.425
X10.0Y-13.0
X10.4Y-13.0
X15.45Y-8.05
X15.45Y-8.25
X14.2Y-5.1
X14.2Y-5.5
X15.45Y-9.45
X15.45Y-9.85
T3
X17.1Y-6.214
X17.1Y-6.37
X17.1Y-10.975
X17.1Y-11.131
X17.1Y-11.287
X17.1Y-11.443
X17.1Y-11.599
X17.1Y-11.755
X17.1Y-11.911
X17.1Y-12.067
X17.1Y-12.223
X17.1Y-12.379
X17.1Y-12.535
X17.1Y-12.691
X17.1Y-12.847
X17.1Y-13.003
X17.1Y-3.925
X17.1Y-4.081
X17.1Y-4.237
X17.1Y-4.393
X17.1Y-4.549
X17.1Y-4.705
X17.1Y-4.861
X17.1Y-5.017
X17.1Y-5.173
X17.1Y-5.329
X17.1Y-5.485
X17.1Y-5.641
X17.1Y-5.797
X17.1Y-5.953
X6.175Y-13.0
X6.175Y-13.2
X6.65Y-12.95
X6.65Y-13.1
X6.65Y-13.25
T4
X6.3Y-13.7
X6.3Y-3.3
X17.7Y-3.3
X14.0Y-13.7
X17.7Y-13.7
X14.0Y-3.3
T0
M30
